<?xml version="1.0" encoding="utf-8"?>
<!-- Generator: Adobe Illustrator 24.1.0, SVG Export Plug-In . SVG Version: 6.00 Build 0)  -->
<svg version="1.1" id="Layer_1" xmlns="http://www.w3.org/2000/svg" xmlns:xlink="http://www.w3.org/1999/xlink" x="0px" y="0px"
	 viewBox="0 0 155.2 143.6" style="enable-background:new 0 0 155.2 143.6;" xml:space="preserve">
<style type="text/css">
	.st0{fill:#FFFFFF;}
</style>
<path class="st0" d="M89.8,0c0.3,47.8,0.5,95.7,0.8,143.6h2C92.3,95.7,92.1,47.9,91.8,0H89.8z"/>
<path class="st0" d="M77.3,119.7c-0.8,0-2.5,0.3-3.1-0.1c-0.4-0.4-0.4-1.1-0.6-1.7c-0.6-1.6-1-3.4-1.7-5.1
	c-1.9-4.7-3.4-9.9-5.2-14.6C66,96.4,47.5,41.6,45.4,36.1c-0.8-2-2.8-7.8-3.1-8.7h-1.6c-0.6,1.8-5.4,17.2-7.6,23.1
	c-4.8,13-8.5,26.6-13.3,39.6c-1.4,3.8-2.5,7.8-3.9,11.6c-1.4,3.8-2.4,7.8-3.9,11.5c-1,2.3-1.6,4.8-3.7,6c-1.8,1.1-5.6,0.7-8.3,0.7
	v2.1h27.1v-2.1c-4,0-10.6,0.6-12.2-1.7c-1.2-1.8,0.4-6,0.9-7.5c2-6.2,4-12.4,6-18.6h28c0.3,2,9.1,27,9.4,27.7v0.1H46.5v2.1h38.6
	v-2.1L77.3,119.7L77.3,119.7z M49.3,89.8H22.8c1.2-2.9,6.5-20.4,8.4-26.2c1.1-3.3,4-12.2,4.4-13.5C35.7,50.1,49.3,89.8,49.3,89.8z"
	/>
<path class="st0" d="M145.5,119.3c-2.2-0.9-3.7-3.3-5-5.2c-2.1-3.2-4.3-6.3-6.4-9.5c-5.7-8.6-11.6-17.1-17.4-25.7
	c-1.9-2.8-3.7-5.6-5.6-8.3c-0.7-1.1-1.7-2.5-2.4-3.7c0.7-0.8,1.8-2.3,2.3-3.1c2.2-3,4.8-5.6,7-8.5c2.1-2.8,4.5-5.3,6.6-8
	c4.8-6.4,11.1-13,19.7-15.4c2.1-0.6,5.2-0.3,7.7-0.3v-2.2h-34.5v2.2c3,0,9.8-0.4,11.6,0.6c0.5,0.3,0.7,0.7,1,1.2
	c0.1,0.3,0.2,0.7,0.2,0.9c-0.3,1.4-1.3,2.3-2,3.2c-1.7,2.4-14.3,17.3-18.5,22.8c-1,1.4-10.2,11.8-11.2,12.8v3.4
	c0.6,0.9,5.3,7.9,6.8,10.3c2.4,3.5,4.7,7.1,6.9,10.8c2.4,4,5.3,7.9,7.8,11.9c1.5,2.4,6.5,10.3,6.5,10.3h-12.1v2.1h40.7v-2.1
	C152.5,119.7,147.6,120.2,145.5,119.3z"/>
</svg>
